# xmcd
#
# Track frame offsets:
#	150
#	28668
#	42594
#	62916
#	80442
#	102239
#	119163
#	132293
#	143937
#	163848
#	177950
#	193559
#	210707
#	223817
#	242180
#	268848
#	285164
#	313008
#
# Disc length: 4379 seconds
#
# Revision: 1
# Processed by: cddbd v1.5.2PL0 Copyright (c) Steve Scherf et al.
# Submitted via: audiograbber 1.83.01
#
DISCID=1d111912
DTITLE=Sampler - technotrans Watermusic 16 - blue notes
DYEAR=2008
DGENRE=Blues
TTITLE0=Tina Turner - Night Time Is The Right Time
TTITLE1=Dianne Reeves and Lou Rawls - Fine Brown Frame
TTITLE2=Charlie Hunter Feat. Norah Jones - Day Is Done
TTITLE3=Keri Noble - Let It Rain
TTITLE4=Rebecka Törnqvist - Nothing Ever
TTITLE5=Molly Johnson - Melody
TTITLE6=Bettye Swann - Tell It Like It Is
TTITLE7=Crystal Gayle - Don't It Make My Brown Eyes Blue
TTITLE8=Dinah Shore - Somebody Loves Me
TTITLE9=Nancy Wilson - For Once In My Life
TTITLE10=Sarah Vaughan with Jimmie Jones amd Orchestra - Stormy Weather
TTITLE11=Dinah Washington - The Blues Ain't Nothin' But...
TTITLE12=Julie London - 'Round Midnight
TTITLE13=Nina Simone - (I Loves You) Porgy
TTITLE14=Angela McCluskey - Don't Explain
TTITLE15=Joss Stone - The Chokin' Kind
TTITLE16=Gary Moore - Still Got The Blues
TTITLE17=Joe Cocker - Night Calls
EXTD=
EXTT0=
EXTT1=
EXTT2=
EXTT3=
EXTT4=
EXTT5=
EXTT6=
EXTT7=
EXTT8=
EXTT9=
EXTT10=
EXTT11=
EXTT12=
EXTT13=
EXTT14=
EXTT15=
EXTT16=
EXTT17=
PLAYORDER=
